<svg width="360" height="231" fill="none" xmlns="http://www.w3.org/2000/svg"><g clip-path="url(#clip0)"><path d="M18.446 128.707h-2.433v2.019h2.433v-2.019zm230.08 2.019h-4.794v-2.019h4.794v2.019zm-9.587 0h-4.793v-2.019h4.793v2.019zm-9.587 0h-4.793v-2.019h4.793v2.019zm-9.586 0h-4.794v-2.019h4.794v2.019zm-9.587 0h-4.793v-2.019h4.793v2.019zm-9.587 0h-4.793v-2.019h4.793v2.019zm-9.586 0h-4.793v-2.019h4.793v2.019zm-9.587 0h-4.793v-2.019h4.793v2.019zm-9.587 0h-4.793v-2.019h4.793v2.019zm-9.586 0h-4.794v-2.019h4.794v2.019zm-9.587 0h-4.793v-2.019h4.793v2.019zm-9.586 0h-4.794v-2.019h4.794v2.019zm-9.587 0h-4.793v-2.019h4.793v2.019zm-9.587 0h-4.793v-2.019h4.793v2.019zm-9.586 0h-4.794v-2.019h4.794v2.019zm-9.587 0h-4.793v-2.019h4.793v2.019zm-9.587 0h-4.793v-2.019h4.793v2.019zm-9.586 0h-4.794v-2.019h4.794v2.019zm-9.587 0h-4.793v-2.019h4.793v2.019zm-9.587 0h-4.793v-2.019h4.793v2.019zm-9.586 0h-4.794v-2.019h4.794v2.019zm-9.587 0h-4.793v-2.019h4.793v2.019zm-9.587 0h-4.793v-2.019h4.794v2.019zm-9.586 0h-4.794v-2.019h4.794v2.019zM18.446 77.42h-2.433v2.019h2.433v-2.02zm230.08 2.019h-4.794v-2.02h4.794v2.02zm-9.587 0h-4.793v-2.02h4.793v2.02zm-9.587 0h-4.793v-2.02h4.793v2.02zm-9.586 0h-4.794v-2.02h4.794v2.02zm-9.587 0h-4.793v-2.02h4.793v2.02zm-9.587 0h-4.793v-2.02h4.793v2.02zm-9.586 0h-4.793v-2.02h4.793v2.02zm-9.587 0h-4.793v-2.02h4.793v2.02zm-9.587 0h-4.793v-2.02h4.793v2.02zm-9.586 0h-4.794v-2.02h4.794v2.02zm-9.587 0h-4.793v-2.02h4.793v2.02zm-9.586 0h-4.794v-2.02h4.794v2.02zm-9.587 0h-4.793v-2.02h4.793v2.02zm-9.587 0h-4.793v-2.02h4.793v2.02zm-9.586 0h-4.794v-2.02h4.794v2.02zm-9.587 0h-4.793v-2.02h4.793v2.02zm-9.587 0h-4.793v-2.02h4.793v2.02zm-9.586 0h-4.794v-2.02h4.794v2.02zm-9.587 0h-4.793v-2.02h4.793v2.02zm-9.587 0h-4.793v-2.02h4.793v2.02zm-9.586 0h-4.794v-2.02h4.794v2.02zm-9.587 0h-4.793v-2.02h4.793v2.02zm-9.587 0h-4.793v-2.02h4.794v2.02zm-9.586 0h-4.794v-2.02h4.794v2.02zm-9.587-53.307h-2.433v2.02h2.433v-2.02zm230.08 2.019h-4.794v-2.02h4.794v2.02zm-9.587 0h-4.793v-2.02h4.793v2.02zm-9.587 0h-4.793v-2.02h4.793v2.02zm-9.586 0h-4.794v-2.02h4.794v2.02zm-9.587 0h-4.793v-2.02h4.793v2.02zm-9.587 0h-4.793v-2.02h4.793v2.02zm-9.586 0h-4.793v-2.02h4.793v2.02zm-9.587 0h-4.793v-2.02h4.793v2.02zm-9.587 0h-4.793v-2.02h4.793v2.02zm-9.586 0h-4.794v-2.02h4.794v2.02zm-9.587 0h-4.793v-2.02h4.793v2.02zm-9.586 0h-4.794v-2.02h4.794v2.02zm-9.587 0h-4.793v-2.02h4.793v2.02zm-9.587 0h-4.793v-2.02h4.793v2.02zm-9.586 0h-4.794v-2.02h4.794v2.02zm-9.587 0h-4.793v-2.02h4.793v2.02zm-9.587 0h-4.793v-2.02h4.793v2.02zm-9.586 0h-4.794v-2.02h4.794v2.02zm-9.587 0h-4.793v-2.02h4.793v2.02zm-9.587 0h-4.793v-2.02h4.793v2.02zm-9.586 0h-4.794v-2.02h4.794v2.02zm-9.587 0h-4.793v-2.02h4.793v2.02zm-9.587 0h-4.793v-2.02h4.794v2.02zm-9.586 0h-4.794v-2.02h4.794v2.02z" fill="#E6E6E6"/><path d="M95.27 129.313H75.406v72.69H95.27v-72.69z" fill="#767679"/><path d="M98.919 129.313H79.054v72.69h19.865v-72.69z" fill="#FD8600"/><path d="M142.297 78.025h-19.865v123.978h19.865V78.025z" fill="#767679"/><path d="M145.946 78.025h-19.865v123.978h19.865V78.025z" fill="#FD8600"/><path d="M189.325 26.738H169.46v175.265h19.865V26.738z" fill="#767679"/><path d="M192.973 26.738h-19.865v175.265h19.865V26.738z" fill="#FD8600"/><path d="M16.216 31.987c2.687 0 4.865-2.17 4.865-4.846s-2.178-4.846-4.865-4.846c-2.687 0-4.865 2.17-4.865 4.846 0 2.677 2.178 4.846 4.865 4.846zm0 51.289c2.687 0 4.865-2.17 4.865-4.847 0-2.676-2.178-4.846-4.865-4.846-2.687 0-4.865 2.17-4.865 4.846 0 2.677 2.178 4.847 4.865 4.847zm0 51.286c2.687 0 4.865-2.169 4.865-4.846 0-2.676-2.178-4.846-4.865-4.846-2.687 0-4.865 2.17-4.865 4.846 0 2.677 2.178 4.846 4.865 4.846z" fill="#E6E6E6"/><path d="M360 201.551H0v.905h360v-.905z" fill="#767679"/><path d="M306.626 37.893c7.621 0 13.799-6.154 13.799-13.745 0-7.592-6.178-13.746-13.799-13.746-7.621 0-13.799 6.154-13.799 13.746 0 7.591 6.178 13.745 13.799 13.745z" fill="#484761"/><path d="M273.248 114.608l-.746 4.458s-4.102 15.231 1.119 14.488c5.221-.743 3.356-13.745 3.356-13.745l.746-4.087-4.475-1.114z" fill="#FFB9B9"/><path d="M319.306 93.618h-30.208s-8.578 13.374-5.221 36.779c3.356 23.404 1.864 75.786 1.864 75.786h11.562l7.831-82.102 16.41 82.102 10.815-1.115-5.967-94.732-7.086-16.718z" fill="#484761"/><path d="M288.911 204.882l-.373 13.746s-4.848 13.746 2.238 12.26c7.086-1.486 7.832-4.458 7.832-5.573 0-1.114-1.865-20.433-1.865-20.433h-7.832zm41.553-1.044l2.135 14.7s6.573 13.015-.645 12.444c-7.219-.571-8.34-3.424-8.483-4.529-.143-1.105-.775-21.617-.775-21.617l7.768-.998z" fill="#484761"/><path d="M306.813 37.707c5.561 0 10.069-4.49 10.069-10.03 0-5.54-4.508-10.03-10.069-10.03-5.561 0-10.07 4.49-10.07 10.03 0 5.54 4.509 10.03 10.07 10.03z" fill="#FFB9B9"/><path d="M314.458 31.95l4.102 14.116-8.205 8.173-4.475-7.801-1.491-11.146 10.069-3.343z" fill="#FFB9B9"/><path d="M318.001 41.422s-.549-3.747-1.766-3.36c-1.217.388-12.033 2.989-12.033 4.103v4.83l-8.95 34.55-2.238 14.116 23.495-.371 3.73-49.038-2.238-4.83z" fill="#E6E6E6"/><path d="M315.949 37.522l2.611.742 4.289 4.273s10.442-1.858 11.934 2.972c1.492 4.83-8.205 65.012-8.205 65.012s-16.409 5.573-19.02-8.544c-2.611-14.117-2.424-26.19 2.797-35.107 5.221-8.916 5.594-29.349 5.594-29.349zm-10.819 3.315l-1.488.77-1.305 5.76s-10.815 2.971-11.561 7.058c-.746 4.086.373 26.376.373 26.376s-10.443 21.176-8.578 30.092c0 0 4.475 3.715 7.832-1.115 3.356-4.829 11.561-33.806 11.934-35.664.373-1.857 4.468-32.749 2.793-33.277z" fill="#484761"/><path d="M294.879 52.939l-3.994 1.078-2.72 7.838-5.594 20.06-10.815 33.065 7.459 3.343 11.934-24.148 3.73-41.236zm19.579-26.563c-6.412-2.303-8.582-3.719-15.664 0l-2.61-10.402h20.884l-2.61 10.402z" fill="#484761"/><path d="M305.507 17.46c4.325 0 7.832-3.492 7.832-7.8 0-4.31-3.507-7.802-7.832-7.802-4.325 0-7.832 3.492-7.832 7.801s3.507 7.802 7.832 7.802z" fill="#484761"/><path d="M296.183 7.801a7.78 7.78 0 012.166-5.378 7.835 7.835 0 015.293-2.404c-.124-.006-.247-.019-.373-.019a7.848 7.848 0 00-5.538 2.285 7.789 7.789 0 00-2.293 5.516c0 2.07.825 4.054 2.293 5.517a7.848 7.848 0 005.538 2.285c.126 0 .249-.013.373-.019a7.836 7.836 0 01-5.293-2.404 7.78 7.78 0 01-2.166-5.378z" fill="#484761"/><path d="M319.208 115.945h-29.09v12.33h29.09v-12.33z" fill="#FD8600"/><path opacity=".1" d="M319.208 115.945h-29.09v12.33h29.09v-12.33z" fill="#000"/><path opacity=".2" d="M304.663 125.501a3.397 3.397 0 003.404-3.391 3.397 3.397 0 00-3.404-3.391 3.397 3.397 0 00-3.404 3.391 3.397 3.397 0 003.404 3.391zm-7.737 1.85h-5.57v-10.482h5.88v.617h-5.261v9.248h4.951v.617zm21.044 0h-5.57v-.617h4.951v-9.248h-5.261v-.617h5.88v10.482z" fill="#000"/><path d="M315.583 117.107l-27.767 8.638 3.69 11.77 27.767-8.637-3.69-11.771z" fill="#FD8600"/><path opacity=".2" d="M303.544 130.703a3.398 3.398 0 003.404-3.392 3.397 3.397 0 00-3.404-3.391 3.397 3.397 0 00-3.404 3.391 3.398 3.398 0 003.404 3.392zm-5.817 3.908l-5.317 1.653-3.136-10.004 5.613-1.746.184.589-5.022 1.562 2.768 8.827 4.726-1.47.184.589zm20.087-6.249l-5.317 1.654-.184-.588 4.726-1.47-2.767-8.828-5.022 1.562-.184-.589 5.612-1.745 3.136 10.004z" fill="#000"/><path d="M319.174 108.46l-1.707 4.187s-4.509 15.117-8.567 11.761c-4.058-3.355 4.363-13.462 4.363-13.462l1.512-3.871 4.399 1.385z" fill="#FFB9B9"/><path d="M329.562 46.623l5.221-1.114a54.246 54.246 0 011.8 6.687c.746 3.715-.405 33.063-1.151 36.035-.746 2.972-14.27 22.775-14.27 22.775l-12.171-2.631 17.588-26.46 2.983-35.292z" fill="#484761"/><path opacity=".2" d="M326.756 65.506l-3.243 17.769-12.162 24.634 10.946-25.846 4.459-16.557z" fill="#000"/></g><defs><clipPath id="clip0"><path fill="#fff" d="M0 0h360v231H0z"/></clipPath></defs></svg>