<svg width="253" height="187" fill="none" xmlns="http://www.w3.org/2000/svg"><g clip-path="url(#clip0)"><path d="M233.08 45.457c-28.715-39.76-89.374-55.89-149.03-38.519-31.54 9.184-61.948 27.585-77.017 63.214-26.94 63.692 29.622 84.033 66.608 90.517 17.884 3.134 34.728 8.4 50.12 15.57 27.692 12.899 76.708 24.328 113.669-29.401 26.79-38.943 14.777-74.896-4.35-101.38z" fill="#F2F2F2"/><path d="M66.6 53.324a7.327 7.327 0 00-.483-1.841.832.832 0 00-.426-.522.881.881 0 00-.422-.005l-2.17.33a.834.834 0 00-.494.192c-.283.295-.005.771-.013 1.18-.01.458-.42.83-.864.953a3.28 3.28 0 01-1.371-.017l-3.033-.469a5.002 5.002 0 002.294-1.523c.4-.47.612-1.35.035-1.572a1.423 1.423 0 00-.527-.042c-1.374.01-2.455-1.131-3.742-1.612a4.156 4.156 0 00-2.553-.061 4.137 4.137 0 00-2.103 1.442l1.615.078a.72.72 0 01.43.114c.355.29-.085.846-.035 1.299.065.589.85.715 1.443.774.592.06 1.344.538 1.059 1.059-2.978 1.02-6.008-1.995-9.134-1.624-.792.094-1.54.403-2.312.598-4.72 1.188-9.6-1.982-14.421-1.31a18.393 18.393 0 00-3.148.825c-.656.215-1.34.446-1.818.944-.477.497-.658 1.347-.206 1.867a10.615 10.615 0 01-3.702-.35 2.069 2.069 0 011.066 1.819c-1.944.315-3.836.89-5.626 1.707.334.553.724 1.07 1.164 1.544l-2.46 1.573c.83.209 1.26 1.337.777 2.041.862-.381 1.396-1.369 2.318-1.569.604-.131 1.219.115 1.792.346.573.23 1.202.455 1.796.281.593-.173 1.03-.938.653-1.426a30.83 30.83 0 017.796-1.212.982.982 0 01.59.112c.344.237.253.75.235 1.165-.019.416.307.963.68.775-.44.38-.064 1.093.358 1.492.421.398.93.948.671 1.467-.067.135-.181.244-.246.38-.191.403.113.873.47 1.141.36.268.798.455 1.047.826.249.37.136 1.02-.31 1.071l-1.264-1.598a3.27 3.27 0 00-.855 1.611c1.342 1.091 1.543 3.312.42 4.625-.573.67-1.39 1.078-2.102 1.602-.712.523-1.37 1.268-1.37 2.149.004 1.522-.121 2.936.452 4.347a66.811 66.811 0 003.654 7.584c.361.643.828 1.348 1.56 1.46a89.318 89.318 0 01-2.499-6.83c.483.002 1.04.04 1.323.429.234.322.184.76.257 1.15.092.38.246.74.456 1.07l4.419 7.831c.366.65.787 1.346 1.487 1.61.447.167.965.136 1.377.378.323.19.54.526.87.705.93.505 2.225-.464 3.095.14.248.172.407.446.636.644.803.692 2.121.229 3.048.745.598.333.908.999 1.227 1.602.798 1.511 2.09 2.991 3.802 3.112.538.037 1.087-.064 1.612.055.526.119 1.043.575.959 1.105-.145.908.306 1.902.185 2.814-.22 1.66-2.587 2.39-2.79 4.052-.045.364.025.74-.063 1.096-.106.437-.436.792-.553 1.226-.222.823.37 1.641 1.02 2.195.651.553 1.427 1.03 1.783 1.805.376.819.192 1.773.314 2.665.267 1.947 1.957 3.391 3.696 4.322.53.283 1.1.558 1.442 1.05.448.642.403 1.488.553 2.255.366 1.879 1.956 3.427 2 5.341.033 1.36-.727 2.594-1.18 3.877a8.999 8.999 0 00.741 7.498c.34.571.746 1.109.986 1.727.428 1.104.29 2.358.684 3.474.523 1.475 1.958 2.693 1.821 4.252.652 1.346 2.09 2.008 3.538 2.409l2.594.718c.496.138 1.015.276 1.52.177.506-.1.989-.518.976-1.03-1.272-.286-2.585-.589-3.633-1.36-1.048-.772-1.767-2.145-1.369-3.38.185-.573.577-1.235.204-1.708-.214-.271-.604-.342-.845-.589-.376-.386-.247-1.034.023-1.499.27-.465.661-.881.77-1.407a1.464 1.464 0 00-.692-1.527 3.67 3.67 0 001.284-.82c.338-.384.494-.975.228-1.411.789.099 1.72.148 2.237-.452.414-.48.385-1.196.222-1.807-.163-.61-.44-1.203-.448-1.834 1.82.085 3.643.024 5.452-.184a3.522 3.522 0 00-1.658-2.066c.82-.138 1.566-1.114 1.825-1.9.259-.785.193-1.641.033-2.453a1.308 1.308 0 01-.025-.642c.093-.293.381-.472.649-.624l4.067-2.325a2.37 2.37 0 00.65-.477c.426-.498.363-1.25.145-1.867s-.568-1.197-.652-1.846c-.251-1.94 1.836-3.332 2.54-5.159.277-.716.333-1.495.387-2.261.057-.823.061-1.778-.573-2.308-.609-.508-1.56-.395-2.196-.868-.584-.433-.785-1.274-1.423-1.624-.579-.318-1.305-.116-1.949-.266-1.134-.263-1.847-1.563-3.006-1.684-.653-.068-1.392.25-1.928-.128-.472-.334-.49-1.005-.58-1.574a4.392 4.392 0 00-1.221-2.336 4.427 4.427 0 00-2.344-1.222c-.673-.107-1.407-.066-1.98-.435-.58-.373-.846-1.071-1.302-1.588-.735-.832-1.892-1.128-2.976-1.382l-4.41-1.031c-.782-.183-1.79-.28-2.21.402-.125.26-.213.535-.262.819a2.541 2.541 0 01-2.397 1.794 2.83 2.83 0 00-1.67-1.286c-.448-.124-.927-.138-1.353-.32a1.9 1.9 0 01-.98-1.135 1.882 1.882 0 01.156-1.487 2.343 2.343 0 00-.404-2.83c-.75-.67-1.835-.832-2.84-.764-.263-.572.177-1.217.651-1.633.475-.415 1.051-.824 1.154-1.444.163-.976-1.089-1.717-2.039-1.426-.95.29-1.556 1.209-1.957 2.114-.23.52-.426 1.067-.789 1.505-.363.438-.947.751-1.5.61-.782-.198-1.084-1.123-1.257-1.908-.233-1.053-.466-2.121-.418-3.198.049-1.077.414-2.183 1.212-2.912 1.3-1.188 3.296-1.072 5.051-.882-.415-.465-.312-1.249.132-1.686a1.93 1.93 0 011.746-.427c.529.11 1.005.393 1.353.804.498.606.64 1.423 1.017 2.11.377.686 1.225 1.272 1.92.904.598-.319.694-1.145.544-1.805-.149-.66-.466-1.3-.412-1.975.103-1.286 1.443-2.06 2.625-2.59 1.182-.529 2.536-1.24 2.723-2.517a2.29 2.29 0 01.14-.732 1.44 1.44 0 01.53-.495c3.45-2.269 6.957-4.565 10.9-5.805.205-.064.229.007.438-.043.292-.169.099-.634-.182-.822-.28-.187-.655-.33-.727-.66-.052-.241.091-.479.128-.723.092-.6-.63-1.155-1.191-.915-.317-.417.31-.902.817-1.041a22.277 22.277 0 014.66-.758.843.843 0 01.53.09c.264.183.23.601.043.861-.188.26-.48.424-.713.645a1.935 1.935 0 00-.505 1.948c.823.416 1.717.845 2.628.698.911-.147 1.72-1.165 1.292-1.979-.4-.758-1.597-.928-1.803-1.759-.241-.972 1.142-1.837.83-2.789-.136-.417-.554-.662-.875-.964a2.61 2.61 0 01-.575-2.9 3.33 3.33 0 01-2.907-.904c-.696-.699-1.25-1.8-2.238-1.77-.907.03-1.687 1.081-2.535.76-.208-.079-.428-.24-.63-.145a.52.52 0 00-.235.388c-.216 1.025.155 2.192-.406 3.077-.61.964-2.023 1.097-2.764 1.966-.401.472-.557 1.107-.927 1.604-.369.498-1.153.814-1.596.38a2.18 2.18 0 00-.598-2.662 5.888 5.888 0 00-1.32-.64 7.844 7.844 0 01-1.476-.818 1.449 1.449 0 01-.541-.576 1.308 1.308 0 01.037-.912 3.729 3.729 0 011.146-1.643 3.756 3.756 0 011.835-.816c.59-.08 1.278-.052 1.668-.5.207-.236.315-.594.615-.69a.911.911 0 01.568.069l2.203.772c.246.11.516.155.785.129a.533.533 0 00.46-.557c-.07-.364-.633-.538-.582-.905a.604.604 0 01.184-.309 7.876 7.876 0 012.848-1.923 7.911 7.911 0 013.4-.532c.277.455-.163.993-.529 1.38-.365.389-.66 1.082-.217 1.38.181.093.383.138.587.132.542.073 1.07.232 1.56.471.762.33 1.509.69 2.24 1.082-.064-.48-.126-.986.057-1.435.183-.45.703-.801 1.157-.627.438.169.663.746 1.129.798.622.071.867-.843.608-1.41-.26-.567-.775-1.041-.818-1.663-.029-.42.132-.94-.205-1.193a.92.92 0 00-.397-.139l-8.404-1.539c-.499-.091-1.22-.02-1.242.483-.013.282.24.56.128.82-.12.276-.512.25-.798.348-.443.152-.666.676-.623 1.14.078.463.257.902.526 1.286-.546-.227-1.374-.269-1.92-.496zm-6.705-7.099a2.734 2.734 0 00-2.99.89c-.138.182-.255.432-.139.628.166.282.59.17.902.07a2.279 2.279 0 011.423-.034c.293.1.555.277.85.373a.859.859 0 00.872-.126c.202-.205.214-.524.215-.811a.65.65 0 00-.167-.536.859.859 0 00-.386-.114 1.331 1.331 0 01-.779-.452m3.229-.728a.696.696 0 00-.609.298.687.687 0 00-.06.672c.364.1.744.124 1.118.073a.957.957 0 00.782-.713c-.44.08-.894-.007-1.274-.243m10.21-1.489a12.92 12.92 0 00-2.869.97c.431.165.798.463 1.046.851.247.388.364.845.33 1.303a1.13 1.13 0 00.014.533c.105.254.41.35.679.415a4.5 4.5 0 001.49.189 1.524 1.524 0 001.232-.75 5.32 5.32 0 01.257-.603c.643-.975 2.555.204 3.245-.738.244-.332.221-.832.539-1.095.164-.115.354-.187.553-.21a39.028 39.028 0 014.203-.596c.669-.058 1.54-.297 1.546-.965a11.695 11.695 0 00-7.427.995c-.828.412-1.923 1.28-2.72.733-.3-.205-.285-.756-.696-.986-.42-.236-.976-.14-1.422-.046z" fill="#3F3D56"/><path d="M81.327 45.516l1.182.226a1.539 1.539 0 00-1.172.467 1.523 1.523 0 00-.422 1.184c1.107.368 2.314.01 3.48.06 1.166.048 2.523.877 2.324 2.021-.06.346-.261.692-.157 1.028.073.235.282.401.4.618.245.451.049 1.022-.26 1.432-.31.41-.726.737-.998 1.173-.675 1.084-.292 2.486.11 3.697.117.457.332.884.63 1.251.597.631 1.568.686 2.439.699.633.009 1.359-.022 1.759-.51.523-.638.157-1.633.502-2.38.312-.68 1.109-.972 1.83-1.179 1.323-.378 2.67-.7 3.92-1.273 1.552-.71 3.003-1.817 4.709-1.909.479-.025.969.031 1.43-.1.461-.13.899-.527.864-1.002-.029-.407-.375-.705-.645-1.012-.27-.306-.482-.777-.234-1.101l4.472-.831c-.317-.86-.564-1.992.164-2.552.263-.202.615-.282.839-.526.381-.416.189-1.133-.251-1.487-.44-.353-1.035-.435-1.599-.482-1.961-.162-3.933-.055-5.898.052l-11.52.629c-.774.042-1.666-.023-2.375.24-.6.222-1.027.63-1.714.773-1.267.265-2.662.085-3.809.794zm21.177 9.297a.478.478 0 00-.344.078.433.433 0 00-.112.264c-.076.433.015.878.255 1.248a1.22 1.22 0 001.124.536c.532-.068.924-.52 1.414-.74.754-.34 3.957-.869 1.741-2.06-.763-.41-1.257-.048-1.859.222a4.245 4.245 0 01-2.219.452zm19.406-9.97a1.26 1.26 0 00-.615.533.533.533 0 00.202.714.813.813 0 00.302.047l1.052.032c.447.013 1.005.108 1.125.536.089.319-.11.727.131.955.103.08.227.128.357.139.347.088.709.1 1.06.034.766-.205.364-.67.605-1.083.368-.634.305-.25.954-.613.48-.268 1.101-.755.7-1.438-.697-1.188-4.845-.366-5.873.144zm20.763-.597l-.611.081c-1.378.183-2.763.367-4.09.78a6.842 6.842 0 001.791.436c.338.017.674.064 1.004.142.585.174 1.176.622 1.742.392.351-.142.466-.506.756-.698.201-.133.963-.349 1.048-.483.688-1.086-1.111-.72-1.64-.65zm2.682 2.762a11.48 11.48 0 00-2.255 1.643c-.287.268-.58.602-.554.993.035.52.591.822 1.073 1.025l1.953.823c.237-.333.02-.791-.225-1.118-.244-.326-.535-.704-.427-1.097.123-.448.673-.601 1.133-.678.751-.126 2.776-.116 2.532-1.32-.286-1.418-2.477-.69-3.23-.27zm-.393 80.264c-.186.536-.204 1.166.118 1.634.361.525 1.083.72 1.708.587a3.072 3.072 0 001.585-1.014c.374-.415.682-.884.912-1.392.322-.791.549-1.617.676-2.461l.606-3.167c.136-.708.131-2.879-1.177-2.172-.357.194-1.184 1.719-1.559 2.151-.674.78-.763 1.536-1.119 2.481-.445 1.182-1.339 2.168-1.75 3.353zm69.062 16.209a9.531 9.531 0 01-1.243-.588c-.4 1.095-.613 2.25-.629 3.416l2.927-1.649c.441-.248.94-.592.931-1.096a.353.353 0 00-.162-.315.401.401 0 00-.206-.024c-.434.036-.83.248-1.239.396-.41.148-.889.226-1.264.007m16.33.832a6.398 6.398 0 00-.939.335c-.672.341-1.129.987-1.733 1.435-.579.428-1.275.664-1.959.893-.201.177-.109.533.11.688.234.133.503.193.773.173.71.016 1.458.023 2.081-.319.35-.226.678-.485.979-.773.728-.604 1.601-1.003 2.466-1.388.315-.118.606-.291.859-.511.544-.533.582-1.355-.201-1.536-.634-.147-1.833.809-2.436 1.003zm6.824-4.435a2.43 2.43 0 00-.747-1.992c-.008.734-.031 1.515-.445 2.121-.296.433-.759.724-1.082 1.136-.324.412-.467 1.064-.088 1.425.243.184.538.285.843.289.756.089 1.63.138 2.16-.405.289-.297.43-.736.783-.954a.95.95 0 00.343-.244c.146-.231-.086-.534-.346-.617-.261-.083-.548-.044-.81-.123-.261-.079-.502-.372-.367-.609m-12.373-26.916c-.396.095-.807.12-1.212.071-.672-.123-1.196-.628-1.739-1.042a7.697 7.697 0 00-4.482-1.558c-1.476-.028-2.965.37-4.414.093.094.524.545.917 1.026 1.15.481.234 1.011.352 1.495.58a3.565 3.565 0 011.728 1.79c.156.361.254.755.489 1.07.482.645 1.395.787 2.201.734 1.051-.069 2.149-.369 3.126.02.748.298 1.283.95 1.908 1.456.624.507 1.504.882 2.221.517a3.667 3.667 0 01-1.85-1.343 3.644 3.644 0 01-.691-2.172c.703.064 2.729.039 2.62-1.15-.093-1.008-1.822-.325-2.426-.216zm-9.199 8.198c.125-.681.808-1.283.595-1.943-.147-.456-.678-.681-1.16-.692-.481-.012-.954.131-1.435.145a6.86 6.86 0 00-.94.013c-.955.156-1.544 1.152-2.444 1.507-.547.215-1.162.174-1.732.323-1.292.338-2.11 1.553-3.013 2.533a10.767 10.767 0 01-5.458 3.167c-.735.169-1.525.278-2.109.752-.773.629-.964 1.707-1.136 2.686a44.177 44.177 0 01-2.17 7.928l3.069.39c.583.074 1.188.146 1.75-.026a5.08 5.08 0 001.151-.61 11.529 11.529 0 014.489-1.612c.804-.11 1.646-.13 2.4.167.755.297 1.401.971 1.465 1.776a1.895 1.895 0 011.884.456c.48.487.795 1.112.899 1.787.081.417.162.918.552 1.093.317.143.682-.011 1.03-.039 1.179-.094 2.158 1.275 3.318 1.039 1.243-.252 1.549-2.106 2.762-2.477.697-.213 1.674.046 2.008-.599.294-.568-.293-1.224-.232-1.861.074-.784 1.003-1.116 1.72-1.451 2.469-1.153 3.641-4.46 2.444-6.899-.709-1.445-2.104-2.583-2.362-4.17-.198-1.222.286-2.646-.496-3.607-.399-.49-1.073-.76-1.31-1.343-.149-.367-.089-.784-.169-1.172-.08-.388-.421-.794-.806-.694-1.118.292-1.474 3.729-2.073 4.563-.91 1.27-2.777.434-2.491-1.13zm-20.663-6.9c-.382-.107-.799-.212-1.165-.059-.366.152-.58.687-.286.952 2.298-.089 4.611-.178 6.89.133 2.625.358 5.223 1.244 7.86.983a40.177 40.177 0 00-4.585-1.058l-2.582-.491a20.01 20.01 0 00-2.096-.322c-1.473-.121-2.588.266-4.036-.138zm2.301-7.965c-.191-.016-.427-.03-.526.134-.094.156.014.362-.037.537-.069.238-.384.3-.631.267-.248-.033-.516-.11-.736.008a.622.622 0 00-.241.705c.09.253.235.483.425.674.325.407.695.776 1.103 1.1.79.581 1.86.86 2.357 1.702.071.164.179.308.315.422.239.151.551.036.808-.081l.901-.41c.163-.058.307-.156.422-.285.205-.278.079-.673-.094-.973-.173-.299-.394-.609-.357-.953.066-.612.857-.846 1.183-1.37.328-.528.114-1.209.152-1.828.044-.725.502-1.667-.234-2.209-.626-.46-1.224-.035-1.673.473-.948 1.071-1.396 2.232-3.137 2.087zm5.471-10.827c.308.586.95.936 1.285 1.507.364.619.322 1.418.717 2.018.405.616 1.22.943 1.447 1.643.248.764-.315 1.693.133 2.361.084.109.19.199.31.266.121.066.254.107.392.12a1.004 1.004 0 00.759-.253 1.06 1.06 0 00-.044-1.488c-.265-.241-.646-.345-.868-.626a1.317 1.317 0 01-.225-.545 3.544 3.544 0 01.057-1.71.76.76 0 00.043-.446c-.1-.289-.493-.31-.768-.443-.626-.304-.611-1.183-.502-1.868-.073.456-1.704-.32-1.875-.577-.339-.513-.154-1.502-.222-2.07-.732.352-1.015 1.394-.639 2.11zm-16.435 9.021c-.301-.336-.755-.687-1.158-.484-.308.154-.393.578-.272.9.147.312.373.58.656.779.842.69 1.748 1.313 2.482 2.116 1.313 1.436 2.009 3.374 3.437 4.697.287.307.668.512 1.083.583.416.039.883-.226.931-.639.039-.341-.199-.645-.432-.898-.555-.6-1.162-1.153-1.686-1.78a1.498 1.498 0 01-.431-.896c-.003-.338.307-.692.636-.608-.4-.102-.697-.765-1.284-.89-.491-.104-.61.198-1.194-.051-1.114-.475-1.988-1.96-2.768-2.829zm26.175-32.661a9.19 9.19 0 01-.941-.335c-.827-.247-1.922.358-1.811 1.21.073.567.602.949.895 1.44.434.728.318 1.652.09 2.468a1.919 1.919 0 01-.313.702c-.21.223-.462.403-.741.53a9.907 9.907 0 00-2.901 2.453.714.714 0 00-.175.328c-.039.288.251.498.416.738.365.533.101 1.25.137 1.894a.536.536 0 00.227.47c.22.111.481-.077.6-.292.396-.714.098-1.86.84-2.203.14-.065.311-.093.404-.216.149-.194.006-.483.081-.715.113-.35.594-.366.962-.35a5.484 5.484 0 001.876-.249c.238-.056.454-.18.621-.357.222-.276.202-.668.158-1.018a13.751 13.751 0 00-1.638-4.975c.652.083 1.361.155 1.924-.184.315-.189.693-.755.537-1.14-.247-.61-.694-.097-1.248-.2zm-83.612 9.608c.078.417.155.855.018 1.257-.138.4-.569.736-.977.613-.316-.095-.499-.412-.723-.653-1.249-1.342-4.067-.565-4.838-2.225-.315-.677-.101-1.489-.316-2.204a1.978 1.978 0 00-1.997-1.35 4.137 4.137 0 00-1.149.342c-2.439.972-5 1.61-7.612 1.894a6.28 6.28 0 00-1.462.265c-1.073.387-1.806 1.376-2.327 2.386-.522 1.01-.907 2.103-1.606 3-.735.942-1.764 1.602-2.725 2.316a2.79 2.79 0 00-.899.938c-.208.426-.196.92-.18 1.393l.196 5.744c.025.739.057 1.504.389 2.165.415.825 1.235 1.366 1.804 2.095.58.75.882 1.676.855 2.622-.012.38-.05.829.248 1.068.181.117.393.178.609.174l7.807.636c1.374.112 2.896.296 3.793 1.337.423.492.763 1.198 1.411 1.251.278.023.549-.091.827-.113.701-.055 1.318.475 1.707 1.059.589.889.856 1.952.758 3.012-.064.666-.272 1.313-.316 1.981-.17 2.539 1.993 4.745 2.035 7.29.024 1.497-.69 2.895-1.386 4.222 1.124 1.694.204 3.949.651 5.929.424 1.879 1.999 3.349 2.391 5.235.179.863.19 1.925.955 2.37.335.162.707.237 1.08.215a14.312 14.312 0 006.486-1.469c.946-.468 1.926-1.165 2.091-2.202.134-.837-.293-1.773.141-2.502.512-.859 1.822-.791 2.575-1.452 1.221-1.071.269-3.115.764-4.659.444-1.387 1.975-2.124 2.734-3.369a5.982 5.982 0 00.635-1.714c.348-1.434.564-2.897.647-4.37.02-.895.086-1.789.198-2.677.819-5.058 5.843-8.445 7.475-13.303.156-.464.229-1.082-.186-1.345a1.193 1.193 0 00-.79-.082l-3.599.451c-.447.056-.921.109-1.332-.076-.41-.185-.705-.702-.487-1.094.611-1.102-.646-2.494-1.205-3.623a53.353 53.353 0 00-5.351-8.635.88.88 0 01-.234-.507l1.021.034c-.344-1.231-.914-2.579-2.116-3.03-.677-.253-1.427-.165-2.15-.126-2.07.113-4.289-.198-6.338-.514z" fill="#3F3D56"/><path d="M134.542 53.864c.541.573 1.149 1.18 1.932 1.28 1.385.176 2.38-1.249 3.014-2.486.023.315.169.61.407.819.238.21.549.32.866.305a2.52 2.52 0 00.958-.373 18.946 18.946 0 018.941-2.3.965.965 0 01.737-1.056c.636-.126 1.208.421 1.515.99.306.567.497 1.225.984 1.65.487.425 1.43.407 1.623-.209.184-.59-.434-1.095-.948-1.443-.514-.348-1.056-.993-.71-1.508 2.626-.578 5.269-1.159 7.956-1.274.457.016.913-.062 1.339-.23.41-.2.736-.654.625-1.094a3.046 3.046 0 01-3.164-1.188c3.728-.306 7.694-.567 10.999 1.178.396.848-1.625 1.552-1.084 2.316.172.244.518.273.817.278 2.297.043 4.606.084 6.877-.26.83-.127 1.668-.305 2.501-.203 1.387.17 2.574 1.092 3.939 1.392.556.123 1.178.127 1.647-.195.468-.322.669-1.054.286-1.472 1.285-1.253 3.418-.942 5.114-.342 1.695.6 3.301 1.567 5.096 1.701 1.287.096 2.592-.248 3.863-.03.799.138 1.543.492 2.324.71 1.477.41 3.039.324 4.573.343 3.913.053 7.783.818 11.419 2.258a3.4 3.4 0 011.27.746c.338.36.51.921.283 1.36l-3.757-.547c.354.694 1.27.812 2.014 1.051.743.24 1.514 1.056 1.067 1.694-.805-.255-1.536.547-1.943 1.285-.407.737-.903 1.62-1.747 1.665-.757.04-1.671-.6-2.164-.028a14.7 14.7 0 011.739 2.766c.487 1.01.833 2.281.175 3.19a.826.826 0 01-.444.342c-.538.136-.887-.519-1.272-.915-.486-.5-1.221-.642-1.879-.876-.657-.234-1.35-.695-1.402-1.389-.032-.431.197-.832.366-1.231a4.73 4.73 0 00.362-2.127c-.037-.586-.202-1.195-.624-1.603-.423-.41-1.152-.54-1.605-.165-.212.175-.382.455-.656.465-.486.019-.859-.824-1.249-.536a1.31 1.31 0 01-.181.883c-1.165 1.009-2.956.582-4.458.938a8.423 8.423 0 00-2.035.884c-.237.102-.44.27-.581.486-.188.363.019.827.35 1.069.35.213.744.347 1.153.391 1.832.346 3.691.88 5.137 2.05 1.446 1.172 2.395 3.107 1.937 4.906l-3.612-3.435c.137 1.442.215 2.888.233 4.338.024.284-.016.568-.114.835-.258.566-.956.756-1.568.881a1.23 1.23 0 00-.824.573 1.21 1.21 0 00-.118.992c.217.705.759 1.255 1.255 1.802.497.548.985 1.17 1.05 1.905.065.734-.492 1.562-1.231 1.511-.561-.039-.976-.538-1.215-1.044-.239-.505-.382-1.069-.741-1.499-1.087-1.3-3.528-.743-4.502-2.13a2.178 2.178 0 00-.455 2.085c.453-.282 1.073-.02 1.413.39.341.41.501.936.768 1.397.361.621.935 1.172.985 1.888-.013.27-.008.542.014.812.09.434.458.745.714 1.108.594.843.565 2.002.181 2.96-.383.956-1.071 1.756-1.753 2.532-1.19 1.354-2.406 2.7-3.817 3.825-.403.321-.833.637-1.084 1.086-.251.448-.264 1.078.122 1.42-.276.013-.771.148-1.046.162a24.083 24.083 0 01-.063-3.312c-1.089-.52-2.261.873-2.121 2.066.141 1.194 1.008 2.152 1.626 3.184.452.755.787 1.636.636 2.502-.15.865-.927 1.664-1.807 1.588-1.399-.122-1.984-2.12-3.37-2.35a.57.57 0 00-.365.037c-.205.112-.241.386-.253.619-.056 1.145-.106 2.335.343 3.39.657 1.544 2.354 2.84 1.998 4.479-1.917-.887-2.914-3.027-3.367-5.083-.453-2.055-.528-4.213-1.34-6.156-.616.786-1.911.136-2.474-.688-.533-.782-.862-1.686-1.38-2.478-.518-.792-1.311-1.501-2.26-1.545-.994-.045-1.857.634-2.615 1.275-.624.528-1.265 1.077-1.629 1.806-.531 1.061-.392 2.313-.418 3.498-.027 1.281-.3 2.633-1.178 3.571-.877.938-2.497 1.265-3.465.42-.506-.442-.75-1.101-.968-1.734a84.448 84.448 0 01-2.621-9.31c-.163.72-.797 1.646-1.403 1.222a1.253 1.253 0 01-.324-.414c-1.13-1.907-3.224-3.05-5.34-3.737-2.115-.685-4.341-1.005-6.434-1.759a16.331 16.331 0 01-3.337-1.654 2.605 2.605 0 00-.16 2.671c.464.818 1.514 1.291 2.413 1.005.464-.147.857-.468 1.318-.627.461-.158 1.079-.08 1.281.362.193.423-.099.934.046 1.376.22.672 1.24.724 1.596 1.336.265.456.047 1.06-.332 1.428-.378.368-.884.57-1.346.825-1.5.83-2.567 2.247-3.878 3.35-1.311 1.102-3.16 1.907-4.723 1.2.373-1.877-1.874-3.255-2.287-5.123-.136-.615-.065-1.268-.26-1.867-.281-.867-1.054-1.464-1.689-2.121a8.297 8.297 0 01-2.295-6.057c.035-.773.177-1.557 0-2.31-.176-.752-.802-1.48-1.578-1.447-1.772.078-4.005.21-4.934-1.294-.332-.536-.477-1.322.003-1.733.339-.29.838-.262 1.283-.219l3.992.39c.934.092 1.944.168 2.745-.318.801-.486 1.148-1.775.406-2.347-.542-.417-1.513-.395-1.671-1.059-.131-.553.484-1.18.152-1.642-.238-.332-.774-.24-1.098.009-.325.248-.56.611-.923.8-.638.33-1.399.015-2.084-.198-.686-.213-1.605-.231-1.937.402-.372.709.33 1.637-.039 2.347-.488.938-2.14.404-2.826 1.211-.786.927.536 2.308.27 3.492a2.19 2.19 0 01-2.151-.12 2.079 2.079 0 01-.904-1.937c.066-.532.345-1.076.158-1.579-.151-.407-.562-.649-.943-.859l-3.88-2.133c-.36.665.095 1.49.665 1.989.569.499 1.283.875 1.657 1.532a2.003 2.003 0 01-.761 2.653.473.473 0 01-.385.067.53.53 0 01-.249-.334c-.685-1.743-1.713-3.462-3.356-4.373-1.643-.91-4.004-.723-5.082.811-.256.364-.428.78-.65 1.165-1.185 2.047-3.725 3.016-6.097 2.952a1.215 1.215 0 01-.665-.155c-.384-.264-.367-.823-.308-1.283l.249-1.952c.05-.392.123-.826.435-1.07.439-.345 1.073-.127 1.633-.135a2.062 2.062 0 001.879-1.443 2.315 2.315 0 00-.65-2.309c-.256-.24-.601-.54-.465-.864a.715.715 0 01.503-.338c1.006-.29 2.068-.366 3.057-.709.989-.343 1.948-1.044 2.182-2.06.071-.31.104-.688.385-.842.141-.06.292-.09.445-.09a2.17 2.17 0 001.368-.765c.345-.416.52-.946.491-1.483.474-.33 1.138-.088 1.596.263.459.35.863.813 1.421.964 1.04.282 2.044-.634 3.121-.638.453-.002.922.157 1.349.005.432-.155.69-.583 1.021-.9.332-.316.914-.509 1.22-.168l-.261-1.922a3.817 3.817 0 003.09-.556l-3.37-1.133a.737.737 0 01-.315-.167c-.245-.263-.002-.672.198-.97.476-.714.556-1.89-.227-2.246-.535-.242-1.149.049-1.663.334l-2.459 1.364c-.079.466.493.73.847 1.043a1.411 1.411 0 01-.126 2.214 1.429 1.429 0 01-.801.257 1.762 1.762 0 01.317 1.495l-1.655.118a.72.72 0 01-.537-.104c-.177-.156-.153-.43-.194-.663-.099-.56-.65-.952-1.212-1.053-.563-.1-1.138.029-1.695.156a1.015 1.015 0 01-.728-.017.726.726 0 01-.288-.361c-.244-.59-.016-1.282.376-1.785.392-.504.929-.872 1.411-1.292a8.18 8.18 0 002.445-3.773c.911-.38 1.854-.896 2.765-1.276a8.499 8.499 0 014.548-.877l3.085.059c.914.017 1.852.04 2.697.386.844.346 1.586 1.096 1.645 2.003a.62.62 0 01-.198.562.732.732 0 01-.39.088c-.852.03-1.215.24-2.067.27zm-24.591 9.622a.908.908 0 00.251-.417.902.902 0 00-.005-.487 1.695 1.695 0 00-1.749.329c-.182.184-.34.391-.468.616-.405.658-.764 1.444-.529 2.18a.614.614 0 00.285.388c.105.042.219.06.332.052a11.26 11.26 0 001.336-.082c.272-.034.588-.11.693-.362.139-.331-.196-.706-.098-1.052a1.14 1.14 0 01.285-.406.537.537 0 00.168-.45c-.04-.163-.289-.255-.379-.114" fill="#3F3D56"/><path d="M112.266 60.498a3.75 3.75 0 00-1.21-.076.527.527 0 00-.258.059.43.43 0 00-.159.229 1.14 1.14 0 00.666 1.395c.145.033.284.089.413.165.342.264.124.804.189 1.23.072.48.538.882.453 1.358-.068.376-.471.673-.406 1.05.068.393.57.512.971.543.232.04.471.013.687-.078.218-.148.372-.37.434-.625a3.99 3.99 0 00.203-1.51 1.423 1.423 0 00-.171-.665 3.63 3.63 0 00-.4-.456c-.767-.887.041-2.212-1.412-2.619z" fill="#3F3D56"/><path opacity=".8" d="M213.127 130.044s-58.745-33.554-84.036-27.197c0 0-53.598 5.74-59.81 18.367 0 0-17.038-52.98-23.25-54.747" stroke="#FD8600" stroke-width=".43" stroke-miterlimit="10"/><path opacity=".8" d="M69.28 121.214c9.85-26.137 98.59-55.1 98.59-55.1-12.601 3.179-38.779 36.733-38.779 36.733s-55.373-40.088-83.06-36.38c0 0 121.928 3.974 167.096 63.577" stroke="#FD8600" stroke-width=".43" stroke-miterlimit="10"/><path d="M46.031 69.028a2.567 2.567 0 002.574-2.56 2.567 2.567 0 00-2.574-2.562 2.567 2.567 0 00-2.573 2.561 2.567 2.567 0 002.573 2.561zm23.249 54.747a2.568 2.568 0 002.574-2.561 2.568 2.568 0 00-2.573-2.561 2.568 2.568 0 00-2.574 2.561 2.568 2.568 0 002.574 2.561zm98.59-55.1a2.567 2.567 0 002.573-2.561 2.567 2.567 0 00-2.573-2.56 2.568 2.568 0 00-2.574 2.56 2.568 2.568 0 002.574 2.56zm45.257 63.93a2.567 2.567 0 002.573-2.561 2.567 2.567 0 00-2.573-2.561 2.568 2.568 0 00-2.574 2.561 2.568 2.568 0 002.574 2.561zm-84.036-27.197a2.567 2.567 0 002.573-2.561 2.567 2.567 0 00-2.573-2.561 2.567 2.567 0 00-2.573 2.561 2.567 2.567 0 002.573 2.561z" fill="#FD8600"/></g><defs><clipPath id="clip0"><path fill="#fff" d="M0 0h253v187H0z"/></clipPath></defs></svg>