<svg width="360" height="185" fill="none" xmlns="http://www.w3.org/2000/svg"><g clip-path="url(#clip0)"><path d="M18.073 172.848l15.47-24.498-15.477 27.167-.008 2.792a59.955 59.955 0 01-3.278-.127l1.262-35.86-.017-.277.029-.053.12-3.388L0 111.753l16.19 24.313.05.718.952-27.094L3.288 81.91 17.3 104.929l.652-56.157.003-.187.002.184.317 44.276L31.562 75.33 18.264 96.859l-.062 24.25 12.328-23.42-12.335 26.986-.034 13.484 17.908-32.611-17.922 37.315-.074 29.985z" fill="#D0CDE1"/><path d="M235.198 69.441h-4.349v30.815h4.349V69.441z" fill="#3F3D56"/><path d="M74.275 3.863L72.64 7.885l160.93 65.187 1.636-4.021L74.276 3.863z" fill="#3F3D56"/><path d="M359.999 176.927C353.263 188.158-.356 187.215.18 176.926c6.736-11.229 360.355-10.287 359.819.001z" fill="#D0CDE1"/><path d="M315.652 131.505h-37.835v14.756h37.835v-14.756z" fill="#3F3D56"/><path d="M312.173 144.525H125.606v16.492h186.567v-16.492z" fill="#3F3D56"/><path d="M281.513 152.771H236.72V96.567h33.486l11.307 28.346v27.858z" fill="#D0CDE1"/><path d="M262.814 100.039h-19.136v19.096h19.136v-19.096zm14.351 19.313h-12.177v-19.096h5.219l6.958 19.096z" fill="#fff"/><path d="M248.897 129.986h-4.349v8.246h4.349v-8.246zm19.787-17.578h.218c1.096 0 2.146.435 2.921 1.208a4.117 4.117 0 010 5.831 4.135 4.135 0 01-2.921 1.207h-.218v-8.246zm-161.778 32.117h.217a4.124 4.124 0 014.132 4.123 4.122 4.122 0 01-1.21 2.915 4.134 4.134 0 01-2.922 1.208h-.217v-8.246z" fill="#3F3D56"/><path d="M298.908 144.463c6.628 0 12.589 3.204 16.725 8.308h8.499l-8.263-22.97-38.488-7.576 1.088 30.546h3.715c4.136-5.104 10.097-8.308 16.724-8.308z" fill="#D0CDE1"/><path d="M299.344 177.075c10.448 0 18.917-8.452 18.917-18.879 0-10.427-8.469-18.879-18.917-18.879-10.448 0-18.918 8.452-18.918 18.879 0 10.427 8.47 18.879 18.918 18.879z" fill="#3F3D56"/><path d="M299.344 168.132c5.499 0 9.957-4.448 9.957-9.936 0-5.488-4.458-9.937-9.957-9.937-5.499 0-9.956 4.449-9.956 9.937 0 5.488 4.457 9.936 9.956 9.936z" fill="#D0CDE1"/><path d="M128.432 176.858c9.127 0 16.526-7.383 16.526-16.492 0-9.108-7.399-16.492-16.526-16.492-9.127 0-16.526 7.384-16.526 16.492 0 9.109 7.399 16.492 16.526 16.492z" fill="#3F3D56"/><path d="M128.432 169.046c4.804 0 8.698-3.886 8.698-8.68s-3.894-8.68-8.698-8.68c-4.803 0-8.697 3.886-8.697 8.68s3.894 8.68 8.697 8.68z" fill="#D0CDE1"/><path d="M238.025 88.755h-9.133v65.752h9.133V88.755z" fill="#3F3D56"/><path d="M238.025 142.572H106.688v3.906h131.337v-3.906zm-58.391-24.554L36.403 156.907l1.027 3.769 143.232-38.888-1.028-3.77z" fill="#3F3D56"/><path d="M169.858 122.757l-2.453 1.799 15.067 20.462 2.453-1.799-15.067-20.462zm101.435-2.537h-4.348v1.736h4.348v-1.736z" fill="#3F3D56"/><path d="M233.023 133.24h-56.97a.436.436 0 01-.285-.105.436.436 0 01.161-.745l55.666-16.492a.437.437 0 01.5.199.426.426 0 01.057.183l1.305 16.492a.426.426 0 01-.114.329.437.437 0 01-.32.139zm-53.977-.868h53.507l-1.225-15.489-52.282 15.489zM78.751 114.144h-.004l-12.484-.117a.432.432 0 01-.322-.147.436.436 0 01-.107-.337l6.487-56.485a.434.434 0 01.432-.385h.002a.435.435 0 01.43.389l5.999 56.602a.435.435 0 01-.433.48zm-11.997-.981l11.513.108-5.531-52.2-5.982 52.092zm251.959 24.686l-.203.076a4.138 4.138 0 01-3.161-.098 4.124 4.124 0 01-2.067-5.454 4.134 4.134 0 012.304-2.161l.204-.076 2.923 7.713zm-264.531 2.53l-12.132 3.389.54 1.922 12.13-3.389-.538-1.922z" fill="#3F3D56"/><path d="M142.026 116.359l-2.342 1.276-95.124 26.571-1.412-1.75a20.828 20.828 0 01-4.518-10.445c-.359-2.861-.096-5.877 1.904-7.713l-3.633-29.24L89.51 80.292l24.952 10.715s9.558-2.85 16.591 2.179c2.227 1.593 4.201 3.976 5.536 7.492l1.15 3.316 4.287 12.365z" fill="#FD8600"/><path d="M120.999 133.888c6.736 0 12.197-5.45 12.197-12.173s-5.461-12.173-12.197-12.173c-6.737 0-12.198 5.45-12.198 12.173s5.461 12.173 12.198 12.173z" fill="#3F3D56"/><path d="M120.998 128.122c3.546 0 6.42-2.869 6.42-6.407s-2.874-6.407-6.42-6.407c-3.545 0-6.419 2.869-6.419 6.407s2.874 6.407 6.419 6.407z" fill="#D0CDE1"/><path d="M63.038 150.078c6.737 0 12.198-5.45 12.198-12.173s-5.461-12.173-12.198-12.173c-6.736 0-12.197 5.45-12.197 12.173s5.461 12.173 12.197 12.173z" fill="#3F3D56"/><path d="M63.039 144.312c3.545 0 6.42-2.868 6.42-6.407 0-3.538-2.875-6.407-6.42-6.407-3.546 0-6.42 2.869-6.42 6.407 0 3.539 2.874 6.407 6.42 6.407z" fill="#D0CDE1"/><path d="M105.836 91.344l-37.741 10.543-3.18-11.338 24.07-6.724 16.851 7.52zm-45.543.496l-15.02 4.195 3.18 11.338 15.02-4.195-3.18-11.338z" fill="#fff"/><path d="M72.392 109.804l-1.926.538 1.024 3.651 1.926-.538-1.024-3.651zm30.856-12.142l-.539-1.922-3.658 1.023.539 1.921 3.658-1.022z" fill="#3F3D56"/><path d="M98.383 89.199l.211-.06a4.187 4.187 0 013.176.382 4.169 4.169 0 01-.923 7.651l-.212.06-2.252-8.033zm39.357 14.795a6.474 6.474 0 01-4.423.137 6.453 6.453 0 01-3.474-2.736 6.433 6.433 0 011.211-8.21c2.226 1.594 4.201 3.977 5.536 7.493l1.15 3.316zM74.724 3.906h-4.349v63.365h4.349V3.906z" fill="#3F3D56"/><path d="M72.55 12.153a6.082 6.082 0 006.088-6.077C78.638 2.721 75.912 0 72.549 0c-3.362 0-6.088 2.72-6.088 6.076 0 3.356 2.726 6.077 6.088 6.077zm160.474 64.233a6.082 6.082 0 006.088-6.077c0-3.355-2.726-6.076-6.088-6.076-3.363 0-6.089 2.72-6.089 6.076 0 3.356 2.726 6.077 6.089 6.077z" fill="#3F3D56"/></g><defs><clipPath id="clip0"><path fill="#fff" d="M0 0h360v185H0z"/></clipPath></defs></svg>