<svg width="262" height="253" fill="none" xmlns="http://www.w3.org/2000/svg"><g clip-path="url(#clip0)"><path opacity=".5" d="M160.284.003L22.241 62.798l87.002 190.207 138.043-62.794L160.284.003z" fill="url(#paint0_linear)"/><path d="M159.167 2.204L24.636 63.4l85.079 186.003 134.531-61.197L159.167 2.204z" fill="#fff"/><path d="M123.201 12.628L56.462 42.987l7.374 16.121 66.739-30.358-7.374-16.122z" fill="url(#paint1_linear)"/><path d="M82.624 12.051c-5.152 2.344-7.378 8.509-4.971 13.77 2.407 5.26 8.535 7.626 13.686 5.281 5.151-2.344 7.377-8.508 4.97-13.77-2.406-5.26-8.534-7.625-13.685-5.28zm6.87 15.022a6.074 6.074 0 01-6.696-.944 6.028 6.028 0 01.466-9.366 6.07 6.07 0 019.1 2.365 5.958 5.958 0 01-.99 6.563 5.99 5.99 0 01-1.88 1.385v-.003z" fill="url(#paint2_linear)"/><path d="M122.501 12.96L57.168 42.68l7.05 15.412 65.333-29.72-7.05-15.412z" fill="#FD8600"/><path d="M82.943 12.754a10.03 10.03 0 00-4.373 3.843 9.99 9.99 0 00.392 11.117 10.036 10.036 0 004.633 3.527 10.065 10.065 0 0010.857-2.553 9.986 9.986 0 001.79-10.98 10.028 10.028 0 00-5.621-5.223 10.064 10.064 0 00-7.678.269zm6.57 14.363a5.805 5.805 0 01-6.35-1.03 5.771 5.771 0 01-1.477-6.245 5.777 5.777 0 012.039-2.665 5.801 5.801 0 018.653 2.288 5.76 5.76 0 01.156 4.416 5.781 5.781 0 01-3.022 3.233v.003z" fill="#FD8600"/><path d="M73.543 77.547L44.739 90.65l13.139 28.724 28.804-13.102-13.139-28.725z" fill="url(#paint3_linear)"/><path d="M99.678 134.426l-28.803 13.102 13.138 28.725 28.804-13.103-13.138-28.724z" fill="url(#paint4_linear)"/><path d="M72.968 79.077L46.273 91.221l12.177 26.621 26.694-12.143-12.176-26.622zm25.796 56.395L72.07 147.615l12.177 26.622 26.695-12.144-12.177-26.621z" fill="#FD8600"/><path d="M130.879 62.663l-36.59 16.644 1.165 2.546 36.59-16.644-1.165-2.546zm25.577-7.02L96.038 83.126l1.165 2.546L157.62 58.19l-1.164-2.546zm-2.512 5.755L97.783 86.945l1.165 2.546 56.161-25.547-1.165-2.546zm2.733 57.662l-36.59 16.644 1.165 2.546 36.59-16.644-1.165-2.546zm25.575-7.023l-60.417 27.484 1.165 2.546 60.417-27.483-1.165-2.547zm-2.51 5.758l-56.162 25.547 1.165 2.546 56.161-25.547-1.164-2.546z" fill="#E0E0E0"/><path d="M58.925 99.628l6.874 2.226L68.06 88.66l3.345.913-3.763 16.311-10.367-4.532 1.649-1.724z" fill="url(#paint5_linear)"/><path d="M59.801 99.454l5.977 1.934 1.966-11.473 2.907.794-3.271 14.183-9.015-3.938 1.436-1.5zM85.758 156.2l5.977 1.934 1.966-11.473 2.907.794-3.271 14.183-9.015-3.938 1.436-1.5z" fill="#fff"/><path d="M200.514 157.531l-85.356 38.828 12.978 28.373 85.356-38.828-12.978-28.373z" fill="#E0E0E0"/><path d="M188.14 180.143c-3.28-.933-6.637-.756-7.682 2.985-.353 1.261-.394 3.218-1.75 3.868-1.995.956-4.402-.957-6.134-1.736-3.227-1.453-6.54-.464-8.408 2.589-.947 1.547-1.353 3.327-1.675 5.089-.139.765-.157 1.71-.48 2.43-.619 1.379-2.555 1.255-3.825 1.202-.278 0-.562-.033-.847-.062a7.456 7.456 0 001.421-4.762c-.082-2.796-1.903-5.855-5.086-5.512-2.85.295-4.858 3.041-4.538 5.819.272 2.362 1.815 4.192 3.792 5.314-.971.428-2.007.762-2.925 1.204-.428.207-.844.439-1.246.694-2.774-1.334-6.418-1.585-8.914-.224-1.208.658-.325 2.616.888 1.951 1.901-1.036 3.997-.776 5.983-.118l.166.059a5.44 5.44 0 00-.518.8c-1.122 2.173 0 5.61 2.73 5.846 3.848.328 4.029-4.744 1.939-6.764a5.863 5.863 0 00-.273-.248c.865-.416 1.8-.729 2.626-1.08a10.9 10.9 0 002.043-1.134l.148.038c2.94.665 7.528.871 8.585-2.68.906-3.083.992-9.628 5.877-9.023 1.992.246 3.626 1.772 5.521 2.324 1.696.505 3.659.525 5.051-.72 1.148-1.028 1.406-2.545 1.758-3.962.181-.733.358-1.606.956-2.129 1.081-.942 2.866-.387 4.071-.044 1.317.372 2.081-1.636.746-2.014zm-38.19 24.974c-.648.64-1.335.133-1.681-.538-.421-.814-.24-1.617.296-2.335.087-.117.181-.229.281-.336 1.282.826 2.33 2.01 1.116 3.209h-.012zm2.274-15.943c1.332-1.234 3.188-.962 3.982.732.793 1.695.444 4.086-.669 5.58-.148.196-.311.38-.489.549a6.226 6.226 0 01-2.111-1.201c-1.575-1.417-2.466-4.036-.701-5.669l-.012.009z" fill="#FD8600"/><path d="M205.893 65.455l-23.896 9.291c-4.494-.333-13.95-1.55-23.335-5.963-10.447-4.913-22.416-4.901-32.565.245-23.387.558-36.26-2.43-43.127-5.258l1.811-3.709-24.222-9.417L0 23.577v110.935l21.194 9.418 11.368-27.196 24.966 11.514 4.793-12.146 16.392 12.131 1.116.936-1.537 1.591a7.979 7.979 0 00-2.194 5.493c0 2.043.785 4.009 2.194 5.493a7.3 7.3 0 005.3 2.275 7.316 7.316 0 005.299-2.275l-.841.885a7.979 7.979 0 00-2.194 5.493c0 2.043.785 4.009 2.194 5.493a7.3 7.3 0 005.299 2.275 7.315 7.315 0 005.3-2.275l4.854-5.034-3.333 3.454a7.978 7.978 0 00-2.194 5.493c0 2.043.785 4.009 2.194 5.493a7.303 7.303 0 008.184 1.682 7.293 7.293 0 002.414-1.682l4.793-4.969-2.016 2.09a5.572 5.572 0 000 7.676 5.092 5.092 0 003.701 1.589 5.109 5.109 0 003.7-1.589l3.198-3.312c5.491 4 9.935 6.92 12.111 7.676 9.068 3.135 9.068-3.144 9.068-3.144 12.111 6.276 18.168-6.277 18.168-6.277 15.14 6.277 15.14-9.418 15.14-9.418 3.783 2.616 6.513 1.417 8.419-.886 2.597-3.123 2.913-7.531 1.131-11.068l14.471-13.335 6.258 12.76 24.966-11.514 11.368 25.133 16.741-7.455V37.205l-56.092 28.25z" fill="url(#paint6_linear)"/><path d="M201.874 123.548l-26.354 23.358-20.496-37.96 46.85-11.68v26.282z" fill="#C2917A"/><path d="M75.965 62.226s8.458 11.679 58.561 8.759l29.282 43.8 19.621 22.016c3.082 3.46 3.257 8.706.231 12.213-1.838 2.129-4.482 3.248-8.141.812 0 0 0 14.599-14.639 8.76 0 0-5.856 11.679-17.568 5.839 0 0 0 5.84-8.783 2.92-8.784-2.92-55.636-40.877-55.636-40.877l-20.495-14.6 17.567-49.642z" fill="#FFCAB3"/><path d="M181.375 76.828s-12.653 0-25.164-5.666c-11.377-5.146-24.625-4.49-35.123 2.264-8.555 5.507-15.968 14.623-15.829 29.68 0 0 11.386 11.679 23.423-11.68h8.784s8.458 29.202 32.209 26.276c23.752-2.926 29.282-5.84 29.282-5.84l-17.582-35.034zm-76.871 57.657l-.95-.948a6.588 6.588 0 00-9.299 0l-6.805 6.787a6.544 6.544 0 000 9.273l.95.948a6.59 6.59 0 009.298 0l6.806-6.787a6.544 6.544 0 000-9.273z" fill="#C2917A"/><path d="M95.066 123.454l-.95-.947a6.587 6.587 0 00-9.299 0l-6.805 6.786a6.544 6.544 0 000 9.273l.95.948a6.587 6.587 0 009.299 0l6.805-6.787a6.544 6.544 0 000-9.273zm22.612 18.328l-.951-.947a6.587 6.587 0 00-9.298 0l-8.269 8.246a6.544 6.544 0 000 9.273l.95.947a6.588 6.588 0 009.299 0l8.269-8.246a6.544 6.544 0 000-9.273zm6.934 10.16l-.663-.662a4.602 4.602 0 00-6.494 0l-5.219 5.205a4.57 4.57 0 000 6.475l.664.662a4.602 4.602 0 006.494 0l5.218-5.204a4.57 4.57 0 000-6.476z" fill="#C2917A"/><path d="M231.152 129.387l-26.351 11.68-26.354-64.24 23.426-8.759 29.279 61.319zM32.047 114.788l26.351 11.68 26.354-64.24-23.426-8.762-29.279 61.322z" fill="#fff"/><path d="M2.765 27.188l58.56 26.278-38.062 87.601-20.498-8.76V27.187z" fill="#333"/><path d="M260.434 41.787l-58.561 26.281 38.066 87.598 20.495-8.76V41.786z" fill="#FD8600"/></g><defs><linearGradient id="paint0_linear" x1="178.266" y1="221.607" x2="91.66" y2="31.22" gradientUnits="userSpaceOnUse"><stop stop-color="gray" stop-opacity=".25"/><stop offset=".54" stop-color="gray" stop-opacity=".12"/><stop offset="1" stop-color="gray" stop-opacity=".1"/></linearGradient><linearGradient id="paint1_linear" x1="42112.6" y1="-16111" x2="41672" y2="-17079.6" gradientUnits="userSpaceOnUse"><stop stop-color="gray" stop-opacity=".25"/><stop offset=".54" stop-color="gray" stop-opacity=".12"/><stop offset="1" stop-color="gray" stop-opacity=".1"/></linearGradient><linearGradient id="paint2_linear" x1="12445.1" y1="-3200.89" x2="11832" y2="-4548.64" gradientUnits="userSpaceOnUse"><stop stop-color="gray" stop-opacity=".25"/><stop offset=".54" stop-color="gray" stop-opacity=".12"/><stop offset="1" stop-color="gray" stop-opacity=".1"/></linearGradient><linearGradient id="paint3_linear" x1="17057.2" y1="3824.09" x2="15658.6" y2="749.652" gradientUnits="userSpaceOnUse"><stop stop-color="gray" stop-opacity=".25"/><stop offset=".54" stop-color="gray" stop-opacity=".12"/><stop offset="1" stop-color="gray" stop-opacity=".1"/></linearGradient><linearGradient id="paint4_linear" x1="19899.4" y1="9947.61" x2="18500.7" y2="6872.89" gradientUnits="userSpaceOnUse"><stop stop-color="gray" stop-opacity=".25"/><stop offset=".54" stop-color="gray" stop-opacity=".12"/><stop offset="1" stop-color="gray" stop-opacity=".1"/></linearGradient><linearGradient id="paint5_linear" x1="7828.55" y1="2292.12" x2="7454.03" y2="1468.8" gradientUnits="userSpaceOnUse"><stop stop-color="gray" stop-opacity=".25"/><stop offset=".54" stop-color="gray" stop-opacity=".12"/><stop offset="1" stop-color="gray" stop-opacity=".1"/></linearGradient><linearGradient id="paint6_linear" x1="157092" y1="90775.2" x2="157092" y2="15088.6" gradientUnits="userSpaceOnUse"><stop stop-color="gray" stop-opacity=".25"/><stop offset=".54" stop-color="gray" stop-opacity=".12"/><stop offset="1" stop-color="gray" stop-opacity=".1"/></linearGradient><clipPath id="clip0"><path fill="#fff" d="M0 0h262v253H0z"/></clipPath></defs></svg>