<svg width="260" height="260" fill="none" xmlns="http://www.w3.org/2000/svg"><path d="M136.257 70.423l-25.955 108.344h6.932v18.858H62.598v-18.091H80.88l56.085-147.629 53.381 147.715h18.228v18.005h-54.341v-18.69h7.104l-25.08-108.512z" fill="#FD8600"/><path d="M237.656 130.001a111.757 111.757 0 01-1.998 21.021l-.112.65-.142.645-.287 1.297-.576 2.582-.142.645c-.049.216-.115.427-.17.64l-.351 1.269-.701 2.54c-.213.858-.507 1.685-.789 2.539l-.826 2.513c-.253.846-.599 1.658-.903 2.489l-.942 2.475a111.45 111.45 0 01-117.203 69.442 111.445 111.445 0 01-45.66-16.248c-.404-.232-.785-.508-1.174-.762l-1.16-.775-2.313-1.556c-.394-.254-.762-.546-1.132-.82l-1.12-.833-2.242-1.673c-1.455-1.163-2.887-2.362-4.332-3.555-1.389-1.244-2.765-2.509-4.149-3.765a111.413 111.413 0 01-32.22-58.29l-.508-2.793-.254-1.391-.127-.696c-.038-.231-.063-.467-.096-.698l-.374-2.806-.2-1.391c-.061-.467-.13-.934-.158-1.404-.142-1.882-.307-3.76-.424-5.639l-.144-5.652c.006-7.548.766-15.077 2.267-22.474l.13-.695.142-.699.322-1.378.655-2.75.165-.688c.056-.229.13-.455.193-.681l.406-1.358.798-2.704c.254-.91.589-1.79.888-2.684l.93-2.668c.292-.897.678-1.757 1.015-2.633l1.067-2.616A111.288 111.288 0 0186.742 25.57a110.505 110.505 0 0121.356-5.698 111.85 111.85 0 01121.621 68.824l.942 2.476c.305.828.653 1.64.907 2.488l.822 2.516c.267.84.577 1.669.79 2.524l.701 2.539.35 1.27c.056.213.122.424.17.637l.142.647.574 2.595.292 1.29.142.645.115.65.449 2.605.226 1.303.114.652c.031.219.054.437.082.655l.319 2.626.163 1.31c.053.437.117.873.14 1.315.124 1.757.274 3.512.378 5.271l.119 5.292zm0 0l-.142-5.284c-.109-1.757-.267-3.512-.396-5.269-.025-.439-.091-.876-.147-1.312l-.17-1.311-.348-2.617c-.031-.219-.054-.437-.089-.655l-.119-.65-.239-1.298-.48-2.597-.119-.65-.15-.643-.302-1.284-.6-2.57-.154-.642c-.051-.214-.12-.422-.181-.633l-.37-1.269-.744-2.54c-.229-.847-.551-1.67-.831-2.503l-.871-2.49c-.271-.836-.637-1.638-.959-2.456l-.998-2.44a104.07 104.07 0 00-23.844-34.277l-3.88-3.512c-1.351-1.104-2.692-2.216-4.05-3.3l-2.097-1.557-1.056-.792c-.351-.254-.689-.53-1.057-.762l-2.168-1.447-1.084-.721c-.361-.239-.716-.49-1.095-.704a103.083 103.083 0 00-38.499-14.44 104.239 104.239 0 00-113.09 64.24A103.58 103.58 0 0029.96 130l.114 4.915c.1 1.635.239 3.268.353 4.903.02.409.084.815.13 1.222l.15 1.218.294 2.44c.025.203.046.407.076.61l.104.604.211 1.209.416 2.422a103.235 103.235 0 005.505 18.847 104.102 104.102 0 00113.11 64.261 103.211 103.211 0 0038.503-14.454 103.772 103.772 0 0040.315-47.09l.998-2.442c.322-.816.688-1.618.959-2.456l.871-2.491c.28-.832.602-1.652.831-2.503l.741-2.539.373-1.27c.059-.213.127-.421.181-.634l.159-.62.612-2.569.305-1.285.15-.643.119-.65.478-2.597.238-1.298.12-.65c.035-.218.058-.436.088-.655l.348-2.617.17-1.311c.056-.436.122-.873.148-1.312.129-1.757.287-3.512.396-5.269l.129-5.296z" fill="#FD8600"/><path d="M54.535 106.955l-1.525 5.452 2.347 1.466-1.369 4.892-13.86-10.155 1.46-5.22 17.118-1.489-1.4 5.009-2.77.045zm-3.63.067l-6.047.154 5.092 3.259.955-3.413zM55.257 92l3.123-5.696 3.03 1.662-3.123 5.695-3.03-1.662zM68 60.51l11.886 10.838-3.15 3.454-6.526-5.951 2.468 10.402-3.157 3.462-11.886-10.838 3.157-3.462 6.575 5.996-2.494-10.47L68 60.51zm4.433-4.14l5.427-3.661 7.576 6.71-3.396-9.53 5.41-3.65 9.007 13.35-3.37 2.274-6.869-10.182 4.256 11.945-3.05 2.059-9.475-8.425 6.87 10.182-3.379 2.28-9.007-13.351zm39.644-3.23l-5.185 2.105-3.353-3.127c-.795-.735-1.357-1.166-1.685-1.294-.331-.134-.706-.116-1.127.055l2.393 5.897-4.595 1.865-6.049-14.905 4.596-1.865 2.323 5.724c.391-.182.645-.451.762-.806.116-.355.157-1.256.122-2.703-.031-1.069.049-1.874.239-2.417.187-.55.642-1.074 1.363-1.572.722-.498 1.93-1.091 3.624-1.779l1.279 3.152-.234.095c-.786.319-1.308.705-1.567 1.157-.258.452-.373 1.063-.345 1.833.026.764-.037 1.369-.186 1.817-.146.438-.423.854-.832 1.249a4.37 4.37 0 012.197.423c.709.328 1.57.941 2.583 1.84l3.677 3.257z" fill="#FD8600"/></svg>