<svg width="644" height="644" fill="none" xmlns="http://www.w3.org/2000/svg"><path d="M351.077 150.009L276.1 462.7h20.024v54.425H138.293v-52.212h52.811l162.02-426.069 154.207 426.318h52.657v51.963h-156.98v-53.941h20.523l-72.454-313.175z" fill="#FD8600" fill-opacity=".2"/><path d="M644 321.955a321.998 321.998 0 01-5.773 60.668l-.322 1.876-1.24 5.606-1.665 7.453-.411 1.861c-.139.623-.33 1.231-.491 1.847l-3.037 10.991c-.616 2.477-1.467 4.866-2.281 7.328l-2.384 7.255c-.733 2.44-1.731 4.785-2.611 7.181l-2.721 7.145a321.625 321.625 0 01-78.768 115.639 321.998 321.998 0 01-120.452 71.3 322.239 322.239 0 01-139.356 13.477 322.135 322.135 0 01-131.903-46.895c-1.167-.667-2.267-1.466-3.389-2.199l-3.352-2.235-6.682-4.492c-1.137-.733-2.201-1.575-3.272-2.367l-3.234-2.403-6.477-4.829c-4.203-3.357-8.34-6.815-12.513-10.26-4.012-3.59-7.988-7.24-11.985-10.867A321.46 321.46 0 016.6 386.808l-2.567-14.085c-.11-.667-.183-1.348-.279-2.015l-1.078-8.097-.58-4.016c-.175-1.348-.373-2.697-.454-4.052-.41-5.43-.888-10.853-1.225-16.276L0 321.955a327.184 327.184 0 016.55-64.859l.374-2.008.41-2.015.932-3.98 1.893-7.936.476-1.986c.162-.659.375-1.311.558-1.963l1.174-3.921 2.303-7.804c.733-2.624 1.701-5.166 2.567-7.746l2.685-7.701c.843-2.587 1.958-5.071 2.933-7.6l3.081-7.547A321.174 321.174 0 0199.161 89.137a321.532 321.532 0 01108.877-68.58 319.471 319.471 0 0161.694-16.444 323.368 323.368 0 01210.541 37.75c63.855 36.101 113.51 92.839 140.798 160.881l2.721 7.145c.881 2.389 1.886 4.734 2.619 7.181l2.377 7.262c.77 2.426 1.665 4.815 2.281 7.284l3.036 10.992c.162.616.352 1.224.492 1.84l.41 1.868 1.658 7.489.844 3.723.41 1.861.33 1.876 1.952 11.278.33 1.883c.088.63.154 1.261.234 1.891l.925 7.577.469 3.781c.154 1.261.337 2.521.403 3.796.36 5.071.793 10.135 1.093 15.213l.345 15.271zm0 0l-.411-15.249c-.315-5.071-.77-10.135-1.144-15.206-.073-1.267-.264-2.528-.425-3.788l-.492-3.781-1.005-7.556c-.088-.63-.154-1.26-.256-1.89l-2.421-13.117-.345-1.876-.432-1.854-.873-3.708-1.731-7.416-.448-1.854c-.146-.615-.344-1.216-.52-1.825l-3.22-10.992c-.661-2.447-1.592-4.821-2.399-7.225l-2.516-7.189c-.785-2.41-1.841-4.726-2.772-7.086l-2.883-7.042a300.337 300.337 0 00-68.882-98.927l-11.207-10.135c-3.902-3.187-7.775-6.397-11.699-9.526l-6.059-4.492-3.051-2.286c-1.012-.733-1.988-1.532-3.052-2.199l-6.264-4.177-3.131-2.08c-1.042-.69-2.069-1.415-3.162-2.03a297.963 297.963 0 00-111.218-41.675 301.367 301.367 0 00-195.839 35.551A300.929 300.929 0 0065.287 211.172 298.694 298.694 0 0044.01 321.955l.33 14.187c.286 4.719.69 9.431 1.02 14.15.058 1.18.242 2.353.374 3.525l.433 3.518.85 7.042c.074.586.132 1.172.22 1.758l.301 1.744.609 3.489 1.203 6.99a297.757 297.757 0 0015.902 54.396A300.53 300.53 0 00196.06 582.756a300.978 300.978 0 00195.944 35.461 298.33 298.33 0 00111.226-41.718 299.55 299.55 0 00116.462-135.904l2.883-7.05c.931-2.352 1.988-4.668 2.772-7.086l2.516-7.189c.807-2.403 1.739-4.77 2.399-7.225l2.142-7.328 1.078-3.664c.169-.615.367-1.216.521-1.832l.462-1.788 2.648-11.124.432-1.854 2.758-14.993c.103-.63.169-1.26.257-1.89l1.005-7.555.491-3.782c.162-1.26.352-2.52.426-3.788.374-5.071.829-10.135 1.144-15.206l.374-15.286z" fill="#FD8600" fill-opacity=".2"/><path d="M114.568 255.324l-4.407 15.735 6.781 4.23-3.954 14.119-40.043-29.31 4.219-15.065 49.453-4.295-4.048 14.455-8.001.131zm-10.488.192l-17.47.444 14.712 9.406 2.758-9.85zm12.61-43.452l9.022-16.437 8.755 4.796-9.023 16.437-8.754-4.796zm36.875-90.966l34.335 31.279-9.097 9.968-18.854-17.175 7.129 30.021-9.119 9.992-34.335-31.279 9.119-9.992 18.994 17.304-7.206-30.22 9.034-9.898zm12.885-12.016l15.68-10.57 21.883 19.367-9.808-27.506 15.627-10.533 26.021 38.531-9.734 6.561-19.844-29.384 12.294 34.473-8.814 5.941-27.368-24.313 19.844 29.385-9.76 6.578-26.021-38.53zm114.608-9.367l-14.978 6.073-9.687-9.025c-2.298-2.12-3.921-3.365-4.869-3.733-.955-.387-2.04-.334-3.254.158l6.914 17.018-13.275 5.383-17.474-43.015 13.274-5.383 6.711 16.52c1.132-.528 1.865-1.303 2.202-2.328.336-1.025.454-3.625.355-7.8-.09-3.084.139-5.41.688-6.977.542-1.587 1.855-3.098 3.939-4.536 2.084-1.437 5.574-3.148 10.468-5.133l3.695 9.096-.675.274c-2.271.92-3.78 2.034-4.527 3.339-.747 1.305-1.079 3.069-.998 5.291.074 2.203-.105 3.95-.538 5.243-.421 1.264-1.222 2.465-2.401 3.604 2.173-.152 4.288.255 6.345 1.221 2.049.946 4.536 2.717 7.461 5.314l10.624 9.396z" fill="#FD8600" fill-opacity=".2"/></svg>