<svg width="60" height="60" fill="none" xmlns="http://www.w3.org/2000/svg"><path d="M31.444 16.252l-5.99 25.002h1.6v4.352H14.446V41.43h4.219L31.607 7.363l12.32 34.088h4.206v4.155h-12.54v-4.313h1.639l-5.788-25.041z" fill="#FD8600"/><path d="M54.844 30a25.79 25.79 0 01-.461 4.85l-.026.15-.033.15-.066.3-.133.595-.033.149c-.011.05-.026.098-.04.148l-.08.293-.162.585c-.05.199-.117.39-.182.586l-.19.58c-.06.196-.139.383-.21.575l-.217.57a25.717 25.717 0 01-37.583 12.276c-.093-.053-.181-.117-.271-.175l-.268-.18-.534-.358c-.09-.059-.175-.126-.26-.19l-.26-.192-.517-.386c-.335-.268-.666-.545-1-.82-.32-.287-.637-.58-.957-.87a25.71 25.71 0 01-7.435-13.45l-.117-.645-.059-.321-.03-.16-.022-.162-.086-.647-.046-.321c-.014-.108-.03-.216-.036-.324-.033-.435-.071-.868-.098-1.302L3.398 30c.002-1.742.177-3.48.524-5.186l.03-.16.032-.162.075-.318.151-.635.038-.158c.013-.053.03-.105.045-.157l.093-.314.184-.624c.059-.21.136-.413.205-.62l.215-.615c.067-.207.156-.406.234-.608l.246-.603A25.682 25.682 0 0120.017 5.9a25.5 25.5 0 014.929-1.315 25.811 25.811 0 0128.066 15.883l.218.571c.07.191.15.379.209.574l.19.581c.061.194.133.385.182.582l.161.586.081.293c.013.05.028.098.04.147l.032.15.133.599.067.297.033.15.026.15.104.6.052.3.027.152.018.15.074.607.038.302c.012.1.027.201.032.303.029.406.063.81.087 1.217l.028 1.22zm0 0l-.033-1.22c-.025-.405-.062-.81-.092-1.215-.005-.102-.02-.202-.034-.303l-.039-.303-.08-.604c-.007-.05-.012-.1-.02-.15l-.028-.15-.055-.3-.11-.6-.028-.15-.035-.148-.07-.296-.138-.593-.036-.149c-.011-.049-.027-.097-.041-.145l-.086-.293-.171-.586c-.053-.196-.128-.386-.192-.578l-.201-.575c-.063-.193-.147-.378-.222-.566l-.23-.564a24.013 24.013 0 00-5.502-7.91l-.896-.81c-.311-.255-.62-.512-.934-.762l-.484-.359-.244-.183c-.08-.058-.159-.122-.244-.176l-.5-.334-.25-.166c-.084-.055-.166-.113-.253-.162a23.789 23.789 0 00-8.884-3.333A24.055 24.055 0 008.614 21.142 23.903 23.903 0 006.914 30l.026 1.134c.023.378.056.754.082 1.132.005.094.02.188.03.282l.034.28.068.564c.006.047.01.094.018.14l.024.14.049.279.096.559c.284 1.487.71 2.943 1.27 4.35a24.023 24.023 0 0026.102 14.829 23.816 23.816 0 008.885-3.336 23.945 23.945 0 009.304-10.867l.23-.563c.075-.189.159-.374.222-.567l.2-.575c.065-.192.14-.381.192-.578l.171-.586.087-.292c.013-.05.029-.098.041-.147l.037-.143.141-.593.07-.296.035-.149.028-.15.11-.599.055-.3.027-.15c.009-.05.014-.1.02-.15l.081-.605.04-.302c.012-.1.028-.202.033-.303.03-.406.067-.81.092-1.216l.03-1.222z" fill="#FD8600"/><path d="M12.807 24.744l-.352 1.259.542.338-.316 1.129-3.199-2.344.337-1.204 3.95-.344-.322 1.156-.64.01zm-.838.016l-1.395.035 1.175.752.22-.787zm.985-3.419l.72-1.314.7.384-.72 1.314-.7-.384zm2.909-7.221l2.743 2.5-.727.797-1.506-1.373.57 2.4-.73.8-2.742-2.501.729-.8 1.517 1.384-.576-2.416.722-.791zm.981-.92l1.253-.845 1.748 1.548-.784-2.2 1.249-.841 2.079 3.08-.778.525-1.585-2.35.982 2.757-.704.475-2.187-1.944 1.586 2.35-.78.526-2.079-3.081zm9.106-.723l-1.196.486-.774-.722c-.183-.17-.313-.269-.389-.298a.337.337 0 00-.26.012l.553 1.36-1.06.431-1.397-3.44 1.06-.43.537 1.321a.31.31 0 00.176-.186c.027-.082.036-.29.028-.623-.007-.247.011-.433.055-.558.043-.127.148-.248.315-.363.166-.115.445-.252.836-.41l.295.727-.054.022c-.181.073-.302.162-.361.267a.793.793 0 00-.08.423 1.23 1.23 0 01-.043.419.723.723 0 01-.192.288c.174-.012.343.02.507.098.164.075.362.217.596.425l.849.751z" fill="#FD8600"/></svg>