<svg width="250" height="250" fill="none" xmlns="http://www.w3.org/2000/svg"><path d="M136.288 58.233L107.182 179.62h7.773v21.127h-61.27v-20.268h20.501l62.896-165.4 59.863 165.496h20.442v20.172h-60.94v-20.94h7.967L136.288 58.233z" fill="#F7F7F7"/><path d="M250 124.983a125.013 125.013 0 01-2.241 23.551l-.125.728-.481 2.176-.647 2.893-.159.723c-.054.242-.128.478-.191.717l-1.179 4.267c-.239.961-.569 1.889-.885 2.845l-.926 2.816c-.284.947-.672 1.857-1.013 2.788l-1.057 2.773a124.85 124.85 0 01-30.577 44.891 125.01 125.01 0 01-46.76 27.679 125.094 125.094 0 01-105.302-12.973c-.453-.259-.88-.569-1.316-.854l-1.301-.867-2.594-1.744c-.441-.285-.854-.612-1.27-.919l-1.256-.933-2.514-1.875c-1.631-1.303-3.237-2.645-4.858-3.982-1.557-1.394-3.1-2.811-4.652-4.219a124.794 124.794 0 01-36.133-65.306l-.997-5.467c-.043-.259-.071-.524-.108-.783l-.419-3.143-.225-1.559c-.068-.523-.145-1.047-.176-1.573-.16-2.108-.345-4.213-.476-6.318L0 124.983a127.05 127.05 0 012.543-25.179l.145-.78.16-.781.361-1.545.735-3.081.185-.77c.062-.257.145-.51.216-.763l.456-1.522.894-3.03c.284-1.018.66-2.005.996-3.007l1.042-2.99c.328-1.004.76-1.968 1.14-2.95l1.195-2.93a124.682 124.682 0 0128.426-41.052A124.818 124.818 0 0180.76 7.98a124.009 124.009 0 0123.95-6.383 125.529 125.529 0 0181.731 14.655 125.344 125.344 0 0154.658 62.453l1.056 2.774c.342.927.732 1.837 1.017 2.787l.923 2.82c.299.941.646 1.868.885 2.827l1.179 4.267c.063.24.137.475.191.714l.159.726.644 2.907.327 1.445.16.723.128.728.757 4.378.128.731c.034.245.06.489.091.734l.359 2.941.182 1.468c.06.489.131.979.157 1.474.139 1.968.307 3.934.424 5.905l.134 5.929zm0 0l-.159-5.92c-.123-1.969-.299-3.934-.445-5.903-.028-.492-.102-.981-.165-1.471l-.191-1.468-.39-2.932c-.034-.245-.059-.49-.099-.734l-.94-5.092-.134-.729-.168-.719-.339-1.44-.672-2.879-.173-.72c-.057-.238-.134-.472-.202-.708l-1.25-4.267c-.257-.95-.618-1.871-.932-2.805l-.976-2.79c-.305-.936-.715-1.835-1.077-2.751l-1.119-2.734a116.572 116.572 0 00-26.739-38.403l-4.351-3.934c-1.515-1.238-3.018-2.484-4.542-3.699l-2.352-1.743-1.184-.888c-.393-.284-.772-.594-1.185-.853l-2.431-1.622-1.216-.808c-.404-.267-.803-.549-1.227-.788a115.67 115.67 0 00-43.175-16.177 116.99 116.99 0 00-76.025 13.8 116.82 116.82 0 00-50.797 58.17 115.95 115.95 0 00-8.26 43.007l.127 5.507c.111 1.832.268 3.661.396 5.493.023.458.094.913.145 1.368l.168 1.366.33 2.734c.03.227.052.455.086.682l.117.677.236 1.354.467 2.714a115.563 115.563 0 006.173 21.116 116.665 116.665 0 0050.78 58.231 116.83 116.83 0 0076.065 13.766 115.798 115.798 0 0043.178-16.195 116.288 116.288 0 0045.211-52.758l1.119-2.736c.361-.913.771-1.812 1.076-2.751l.977-2.791c.313-.933.675-1.852.931-2.805l.831-2.844.419-1.423c.065-.239.142-.472.202-.711l.179-.694 1.028-4.318.168-.72 1.071-5.82c.04-.245.065-.489.1-.734l.39-2.933.19-1.468c.063-.489.137-.978.166-1.471.145-1.968.321-3.934.444-5.902l.145-5.934z" fill="#F7F7F7"/><path d="M44.475 99.116l-1.71 6.109 2.632 1.642-1.535 5.481-15.545-11.378 1.638-5.848 19.198-1.668-1.572 5.612-3.106.05zm-4.071.075l-6.782.172 5.711 3.652 1.07-3.824zm4.895-16.868l3.502-6.38 3.399 1.861-3.503 6.38-3.398-1.861zM59.614 47.01l13.329 12.143-3.532 3.87-7.32-6.668 2.768 11.654-3.54 3.879L47.99 59.745l3.54-3.878 7.374 6.717-2.797-11.731 3.507-3.843zm5.002-4.665l6.086-4.102 8.496 7.517-3.808-10.677 6.066-4.09 10.102 14.958-3.779 2.547-7.703-11.406 4.772 13.382-3.421 2.306-10.625-9.438 7.704 11.407-3.789 2.554-10.101-14.958zm44.49-3.635l-5.814 2.357-3.76-3.504c-.893-.823-1.523-1.306-1.89-1.449-.371-.15-.792-.13-1.264.062l2.684 6.606-5.153 2.09-6.784-16.699 5.153-2.09 2.606 6.413c.439-.204.724-.506.854-.903.13-.398.177-1.407.138-3.028-.035-1.198.054-2.1.267-2.709.21-.616.72-1.202 1.53-1.76.808-.558 2.163-1.223 4.063-1.993l1.435 3.53-.263.107c-.881.358-1.467.79-1.757 1.297-.29.506-.419 1.19-.387 2.054.028.855-.041 1.533-.209 2.035-.164.49-.475.957-.932 1.399a4.909 4.909 0 012.463.474c.795.367 1.761 1.055 2.896 2.063l4.124 3.647z" fill="#F7F7F7"/></svg>