<svg width="20" height="18" fill="none" xmlns="http://www.w3.org/2000/svg"><path d="M14.525 0a5.518 5.518 0 013.988 1.773A5.568 5.568 0 0119.99 5.86l-.002 6.237a5.6 5.6 0 01-1.476 4.13A5.522 5.522 0 0114.517 18h-9.06C2.286 18 0 15.438 0 12.141V5.859C0 2.562 2.287 0 5.456 0h9.07zm-.017 1.528H5.456c-2.293 0-3.939 1.844-3.939 4.331v6.282c0 2.487 1.646 4.33 3.94 4.33h9.051a4.005 4.005 0 002.895-1.287 4.097 4.097 0 001.07-3.043l.002-6.327a4.064 4.064 0 00-1.072-2.998 4.005 4.005 0 00-2.895-1.288zm1.516 4.11a.77.77 0 01-.036.998l-.082.077-4.107 3.31a2.89 2.89 0 01-3.416.114l-.161-.117-4.135-3.305a.768.768 0 01-.122-1.074.755.755 0 01.973-.187l.093.063L9.16 8.818a1.38 1.38 0 001.58.089l.118-.083 4.1-3.305a.755.755 0 011.066.12z" fill="#F7F7F7"/></svg>