<svg width="18" height="20" fill="none" xmlns="http://www.w3.org/2000/svg"><path d="M9.029 0l.255.005c4.576.15 8.231 3.927 8.216 8.548v.102c-.052 2.756-1.431 5.47-3.72 7.892a21.122 21.122 0 01-3.756 3.102l.01-.007-.048.04a1.688 1.688 0 01-1.843.085l-.129-.084-.06-.047-.414-.279a20.76 20.76 0 01-4.533-4.256l-.317-.413A10.736 10.736 0 01.5 8.526l.005-.285C.655 3.651 4.42-.016 9.029 0zm-.005 1.518l-.24.003c-3.75.114-6.759 3.191-6.772 6.979l.019.357a9.204 9.204 0 001.864 4.915A19.253 19.253 0 008.8 18.376l.082.062c.068.06.17.06.238 0l.085-.063a19.602 19.602 0 003.483-2.876c2.046-2.167 3.256-4.548 3.3-6.858l-.003-.332c-.114-3.76-3.182-6.779-6.96-6.791zM9 5.4a3.243 3.243 0 013.238 3.248A3.243 3.243 0 019 11.898a3.243 3.243 0 01-3.238-3.249A3.243 3.243 0 019 5.401zm0 1.52c-.953 0-1.725.775-1.725 1.73 0 .956.772 1.731 1.725 1.731.953 0 1.725-.775 1.725-1.73 0-.956-.772-1.731-1.725-1.731z" fill="#F7F7F7"/></svg>