<svg width="30" height="31" fill="none" xmlns="http://www.w3.org/2000/svg"><path fill="#FD8600" d="M0 0h30v31H0z"/><path fill-rule="evenodd" clip-rule="evenodd" d="M13.896 18.28c1.793 0 3.247-1.482 3.247-3.31 0-1.827-1.454-3.308-3.247-3.308s-3.247 1.481-3.247 3.309c0 1.827 1.454 3.308 3.247 3.308zm0 .661c2.152 0 3.896-1.777 3.896-3.97 0-2.193-1.744-3.971-3.896-3.971S10 12.778 10 14.97c0 2.193 1.744 3.971 3.896 3.971z" fill="#F7F7F7"/><path fill-rule="evenodd" clip-rule="evenodd" d="M19.61 20l-3.116-2.382.39-.53L20 19.471l-.39.529z" fill="#F7F7F7"/><path d="M12.597 14.584v.612h.953v.943h.6v-.943h.953v-.612h-.953v-.937h-.6v.937h-.953z" fill="#F7F7F7"/></svg>